HIERARCHY
ROOT pelvis
{
	OFFSET 0.003123 -0.351407 0.012037
	CHANNELS 6 Xposition Yposition Zposition Zrotation Yrotation Xrotation 
	JOINT left_hip
	{
		OFFSET 0.058189 -0.092763 -0.026001
		CHANNELS 3 Zrotation Yrotation Xrotation
		JOINT left_knee
		{
			OFFSET 0.054695 -0.378753 -0.009396
			CHANNELS 3 Zrotation Yrotation Xrotation
			JOINT left_ankle
			{
				OFFSET -0.043453 -0.403059 -0.031876
				CHANNELS 3 Zrotation Yrotation Xrotation
				JOINT left_foot
				{
					OFFSET 0.047257 -0.057997 0.118216
					CHANNELS 3 Zrotation Yrotation Xrotation
					End Site
					{
						OFFSET 0.000000 0.000000 0.000000
					}
				}
			}
		}
	}
	JOINT right_hip
	{
		OFFSET -0.063267 -0.103908 -0.021250
		CHANNELS 3 Zrotation Yrotation Xrotation
		JOINT right_knee
		{
			OFFSET -0.044210 -0.362380 -0.016824
			CHANNELS 3 Zrotation Yrotation Xrotation
			JOINT right_ankle
			{
				OFFSET 0.015417 -0.410728 -0.020192
				CHANNELS 3 Zrotation Yrotation Xrotation
				JOINT right_foot
				{
					OFFSET -0.038812 -0.058328 0.119049
					CHANNELS 3 Zrotation Yrotation Xrotation
					End Site
					{
						OFFSET 0.000000 0.000000 0.000000
					}
				}
			}
		}
	}
	JOINT spine_1
	{
		OFFSET -0.002763 0.109891 -0.027618
		CHANNELS 3 Zrotation Yrotation Xrotation
		JOINT spine_2
		{
			OFFSET 0.009448 0.131853 -0.005940
			CHANNELS 3 Zrotation Yrotation Xrotation
			JOINT spine_3
			{
				OFFSET -0.011330 0.052235 0.028447
				CHANNELS 3 Zrotation Yrotation Xrotation
				JOINT neck
				{
					OFFSET -0.012164 0.165167 -0.031615
					CHANNELS 3 Zrotation Yrotation Xrotation
					JOINT head
					{
						OFFSET 0.024783 0.160452 0.020737
						CHANNELS 3 Zrotation Yrotation Xrotation
						End Site
						{
							OFFSET 0.000000 0.000000 0.000000
						}
					}
				}
				JOINT left_collar
				{
					OFFSET 0.046364 0.084944 -0.007220
					CHANNELS 3 Zrotation Yrotation Xrotation
					JOINT left_shoulder
					{
						OFFSET 0.119239 0.057728 -0.015461
						CHANNELS 3 Zrotation Yrotation Xrotation
						JOINT left_elbow
						{
							OFFSET 0.254123 -0.072151 -0.042459
							CHANNELS 3 Zrotation Yrotation Xrotation
							JOINT left_wrist
							{
								OFFSET 0.251987 0.023221 -0.002472
								CHANNELS 3 Zrotation Yrotation Xrotation
								JOINT left_index_1
								{
									OFFSET 0.101902 -0.008688 0.019351
									CHANNELS 3 Zrotation Yrotation Xrotation
									JOINT left_index_2
									{
										OFFSET 0.030149 -0.011154 0.001151
										CHANNELS 3 Zrotation Yrotation Xrotation
										JOINT left_index_3
										{
											OFFSET 0.006504 -0.021577 -0.002433
											CHANNELS 3 Zrotation Yrotation Xrotation
											End Site
											{
												OFFSET 0.000000 0.000000 0.000000
											}
										}
									}
								}
								JOINT left_middle_1
								{
									OFFSET 0.109398 -0.006328 -0.003981
									CHANNELS 3 Zrotation Yrotation Xrotation
									JOINT left_middle_2
									{
										OFFSET 0.026472 -0.015218 -0.004641
										CHANNELS 3 Zrotation Yrotation Xrotation
										JOINT left_middle_3
										{
											OFFSET 0.005022 -0.023347 -0.001911
											CHANNELS 3 Zrotation Yrotation Xrotation
											End Site
											{
												OFFSET 0.000000 0.000000 0.000000
											}
										}
									}
								}
								JOINT left_pinky_1
								{
									OFFSET 0.084047 -0.014539 -0.043750
									CHANNELS 3 Zrotation Yrotation Xrotation
									JOINT left_pinky_2
									{
										OFFSET 0.012124 -0.014448 -0.005375
										CHANNELS 3 Zrotation Yrotation Xrotation
										JOINT left_pinky_3
										{
											OFFSET 0.003798 -0.018853 0.000167
											CHANNELS 3 Zrotation Yrotation Xrotation
											End Site
											{
												OFFSET 0.000000 0.000000 0.000000
											}
										}
									}
								}
								JOINT left_ring_1
								{
									OFFSET 0.097444 -0.009268 -0.027345
									CHANNELS 3 Zrotation Yrotation Xrotation
									JOINT left_ring_2
									{
										OFFSET 0.023561 -0.016057 -0.001895
										CHANNELS 3 Zrotation Yrotation Xrotation
										JOINT left_ring_3
										{
											OFFSET 0.004257 -0.023548 0.000814
											CHANNELS 3 Zrotation Yrotation Xrotation
											End Site
											{
												OFFSET 0.000000 0.000000 0.000000
											}
										}
									}
								}
								JOINT left_thumb_1
								{
									OFFSET 0.040636 -0.017977 0.025611
									CHANNELS 3 Zrotation Yrotation Xrotation
									JOINT left_thumb_2
									{
										OFFSET 0.021637 -0.017639 0.011623
										CHANNELS 3 Zrotation Yrotation Xrotation
										JOINT left_thumb_3
										{
											OFFSET 0.024002 -0.008356 0.006548
											CHANNELS 3 Zrotation Yrotation Xrotation
											End Site
											{
												OFFSET 0.000000 0.000000 0.000000
											}
										}
									}
								}
							}
						}
					}
				}
				JOINT right_collar
				{
					OFFSET -0.047695 0.084339 -0.013400
					CHANNELS 3 Zrotation Yrotation Xrotation
					JOINT right_shoulder
					{
						OFFSET -0.102578 0.053524 -0.012669
						CHANNELS 3 Zrotation Yrotation Xrotation
						JOINT right_elbow
						{
							OFFSET -0.271150 -0.036492 -0.026467
							CHANNELS 3 Zrotation Yrotation Xrotation
							JOINT right_wrist
							{
								OFFSET -0.249267 -0.004533 -0.015325
								CHANNELS 3 Zrotation Yrotation Xrotation
								JOINT right_index_1
								{
									OFFSET -0.099881 -0.011783 0.019600
									CHANNELS 3 Zrotation Yrotation Xrotation
									JOINT right_index_2
									{
										OFFSET -0.030148 -0.011154 0.001151
										CHANNELS 3 Zrotation Yrotation Xrotation
										JOINT right_index_3
										{
											OFFSET -0.006505 -0.021577 -0.002432
											CHANNELS 3 Zrotation Yrotation Xrotation
											End Site
											{
												OFFSET 0.000000 0.000000 0.000000
											}
										}
									}
								}
								JOINT right_middle_1
								{
									OFFSET -0.107376 -0.009422 -0.003734
									CHANNELS 3 Zrotation Yrotation Xrotation
									JOINT right_middle_2
									{
										OFFSET -0.026472 -0.015218 -0.004641
										CHANNELS 3 Zrotation Yrotation Xrotation
										JOINT right_middle_3
										{
											OFFSET -0.005022 -0.023347 -0.001911
											CHANNELS 3 Zrotation Yrotation Xrotation
											End Site
											{
												OFFSET 0.000000 0.000000 0.000000
											}
										}
									}
								}
								JOINT right_pinky_1
								{
									OFFSET -0.082027 -0.017634 -0.043503
									CHANNELS 3 Zrotation Yrotation Xrotation
									JOINT right_pinky_2
									{
										OFFSET -0.012123 -0.014448 -0.005374
										CHANNELS 3 Zrotation Yrotation Xrotation
										JOINT right_pinky_3
										{
											OFFSET -0.003798 -0.018852 0.000167
											CHANNELS 3 Zrotation Yrotation Xrotation
											End Site
											{
												OFFSET 0.000000 0.000000 0.000000
											}
										}
									}
								}
								JOINT right_ring_1
								{
									OFFSET -0.095423 -0.012362 -0.027099
									CHANNELS 3 Zrotation Yrotation Xrotation
									JOINT right_ring_2
									{
										OFFSET -0.023561 -0.016057 -0.001895
										CHANNELS 3 Zrotation Yrotation Xrotation
										JOINT right_ring_3
										{
											OFFSET -0.004257 -0.023548 0.000816
											CHANNELS 3 Zrotation Yrotation Xrotation
											End Site
											{
												OFFSET 0.000000 0.000000 0.000000
											}
										}
									}
								}
								JOINT right_thumb_1
								{
									OFFSET -0.038613 -0.021074 0.025861
									CHANNELS 3 Zrotation Yrotation Xrotation
									JOINT right_thumb_2
									{
										OFFSET -0.021636 -0.017639 0.011623
										CHANNELS 3 Zrotation Yrotation Xrotation
										JOINT right_thumb_3
										{
											OFFSET -0.024004 -0.008353 0.006547
											CHANNELS 3 Zrotation Yrotation Xrotation
											End Site
											{
												OFFSET 0.000000 0.000000 0.000000
											}
										}
									}
								}
							}
						}
					}
				}
			}
		}
	}
}
MOTION
Frames: 6
Frame Time: 0.050000
-0.139423 0.915636 -0.132721 4.924597 6.448625 -16.053883 2.139946 0.987098 8.059663 -2.996339 -1.770852 20.132916 4.705986 7.895118 -1.528259 0.000000 0.000000 0.000000 -6.187914 -1.235215 16.189359 13.775269 -0.323381 -9.176226 -8.118672 -17.455914 5.603347 0.000000 0.000000 0.000000 -5.849706 -0.610232 7.811009 -5.537481 1.533902 -6.440252 10.918110 -0.001494 21.480928 2.368074 0.011188 -2.216065 0.000000 0.000000 0.000000 -1.225355 0.517333 -0.412413 -50.615641 13.424320 -11.546246 145.121339 -71.819374 -118.938853 2.663621 0.256633 -15.791380 -0.251035 3.221706 1.121953 44.079621 -2.976908 -11.299999 0.000000 0.000000 0.000000 3.264206 -10.631181 -5.967411 37.563180 -1.496173 -9.459115 0.000000 0.000000 0.000000 28.480523 -20.737885 -30.594751 20.320671 0.488208 4.583312 0.000000 0.000000 0.000000 5.274705 -14.199898 -10.423075 38.539521 2.969342 -10.660869 0.000000 0.000000 0.000000 31.738054 23.409168 11.086242 -19.825720 -10.462462 3.338641 0.000000 0.000000 0.000000 -2.032658 2.976799 1.602437 46.904363 19.521218 0.636871 -136.268097 69.904527 -118.926506 4.661404 0.719313 -13.007758 5.820132 -2.021725 0.868742 -20.780100 1.485482 -1.554389 0.000000 0.000000 0.000000 6.727653 9.653846 -5.921176 -10.904869 0.709681 -2.260757 0.000000 0.000000 0.000000 -12.762914 19.397474 -28.120533 -0.557726 -1.144678 4.720585 0.000000 0.000000 0.000000 6.962486 14.238724 -9.173822 -11.792771 -0.339043 -3.759741 0.000000 0.000000 0.000000 -16.041856 -21.187787 12.635769 16.303711 10.987388 1.767582 0.000000 0.000000 0.000000 
-0.151672 0.935944 -0.103683 6.673600 9.028730 -15.730438 -3.358404 0.381247 2.180413 6.407785 -4.486909 21.214446 4.264400 11.536688 5.541051 0.000000 0.000000 0.000000 -2.135020 -1.364519 12.165083 4.508446 -0.367649 1.258693 -10.097357 -20.957489 7.752297 0.000000 0.000000 0.000000 -10.817752 -0.728836 9.993436 -6.665518 1.971471 -7.332600 15.293821 1.981375 24.882926 0.531702 0.550512 -3.548862 0.000000 0.000000 0.000000 -1.905076 -0.448987 -0.076929 -55.648794 -0.857947 -11.107257 139.546326 -68.438451 -108.800769 -7.653091 6.911055 -12.369629 -18.233585 9.371634 2.970423 5.541216 -3.671688 -14.662274 0.000000 0.000000 0.000000 -18.029330 -9.907253 -6.155646 -5.591102 -5.808493 -19.872370 0.000000 0.000000 0.000000 18.539344 -28.177419 -45.694935 0.166412 -1.872839 -7.289001 0.000000 0.000000 0.000000 -14.698618 -20.940957 -11.633567 1.829577 -6.897400 -29.874374 0.000000 0.000000 0.000000 20.711630 24.116526 15.239137 -19.464090 -9.873774 3.121748 0.000000 0.000000 0.000000 -0.830229 6.081537 3.070412 47.403468 23.918427 2.639022 -135.414598 64.318925 -109.435119 15.812274 2.745595 -12.292555 28.050131 -7.443837 2.287934 37.149273 -5.461127 5.646276 0.000000 0.000000 0.000000 43.218706 5.333623 -6.297044 28.244901 0.241317 -2.392813 0.000000 0.000000 0.000000 32.070339 25.122080 -30.381217 21.132605 -6.221036 12.324788 0.000000 0.000000 0.000000 44.391517 20.417296 -6.819716 23.029171 1.360076 0.366009 0.000000 0.000000 0.000000 9.715388 -22.196770 22.728920 -10.972709 12.074883 -8.019410 0.000000 0.000000 0.000000 
-0.149788 0.925145 -0.079926 6.058607 8.711377 -14.287278 -1.830934 0.241575 1.423845 9.440398 -4.876076 19.375333 2.034159 8.101444 5.743329 0.000000 0.000000 0.000000 -0.733155 -1.024616 8.399962 3.980933 -0.342665 7.768003 -11.902982 -23.434238 1.758572 0.000000 0.000000 0.000000 -6.053152 -0.752173 17.162110 -6.465120 0.987686 -10.691549 10.541562 4.618123 25.117790 1.388336 0.819055 -5.726439 0.000000 0.000000 0.000000 -0.671475 -3.696544 1.663732 -59.829741 -16.179008 -8.908375 124.840651 -69.165186 -92.947339 -15.938121 19.306871 -1.935464 -62.266853 27.420097 -2.046203 -14.333279 -2.409170 -6.968256 0.000000 0.000000 0.000000 -65.325902 8.358539 -9.705901 -10.586449 -2.150856 -7.813179 0.000000 0.000000 0.000000 -7.779354 -38.797042 -59.915609 -30.229652 -3.130199 -1.461178 0.000000 0.000000 0.000000 -53.374598 -22.175246 -8.986624 -26.447019 -5.498031 -6.976684 0.000000 0.000000 0.000000 -8.683698 30.951726 32.704887 38.192460 -10.302256 -19.048347 0.000000 0.000000 0.000000 -7.394622 6.105918 2.586909 59.189607 31.308817 9.404522 -141.060079 67.177028 -119.311183 17.067088 1.727863 3.397941 99.567914 -8.278080 -5.007403 -1.193127 -0.686907 1.864421 0.000000 0.000000 0.000000 107.057481 -11.477898 -21.916843 -29.936794 2.435948 -12.454926 0.000000 0.000000 0.000000 115.431114 -2.040762 -30.961231 -35.682506 -0.286028 0.692611 0.000000 0.000000 0.000000 111.629866 6.955291 -8.084173 -42.341965 -3.096378 -5.592184 0.000000 0.000000 0.000000 68.434607 -1.068522 22.167728 -101.295658 -30.503982 25.704293 0.000000 0.000000 0.000000 
-0.157326 0.923211 -0.098404 4.174660 10.065005 -11.624254 3.831858 0.172224 2.434018 7.033832 -2.052500 8.800725 -2.593740 0.443047 5.813013 0.000000 0.000000 0.000000 1.549876 -1.223818 8.399004 4.396681 -0.365314 -0.522915 -11.838941 -23.673957 4.207092 0.000000 0.000000 0.000000 -0.937899 -0.719736 12.366753 -5.602192 0.256654 -12.330612 7.556913 2.739128 29.105911 2.071166 0.701551 -5.660053 0.000000 0.000000 0.000000 -6.321696 -2.286205 -0.056989 -57.692741 -12.801716 -9.277129 124.949789 -72.138274 -96.199021 -6.765267 9.466090 -0.096996 -17.330974 10.930997 3.035204 16.712778 -1.292410 2.902557 0.000000 0.000000 0.000000 -13.906324 0.373241 -2.187351 1.586915 0.517577 2.982368 0.000000 0.000000 0.000000 29.208480 -17.304100 -20.839809 -21.161424 -3.310897 -7.709656 0.000000 0.000000 0.000000 -4.710284 -6.186653 -4.461969 -10.017503 -2.029659 -5.635025 0.000000 0.000000 0.000000 9.612324 20.270208 16.153175 -15.436385 -10.947834 1.790350 0.000000 0.000000 0.000000 -7.507588 7.009964 3.046015 56.351841 31.152020 8.383673 -151.712827 73.481098 -139.458963 -0.831713 -4.681790 11.838865 31.300094 1.414459 -0.388936 49.510821 0.847004 -10.875447 0.000000 0.000000 0.000000 49.630757 -2.035402 -9.316055 39.926679 6.859452 -19.269437 0.000000 0.000000 0.000000 96.639370 16.947049 -33.337377 -29.633048 -1.593855 -2.321389 0.000000 0.000000 0.000000 61.244499 12.677902 -7.140169 23.552461 9.653632 -26.316579 0.000000 0.000000 0.000000 17.284541 -7.743838 11.917468 -30.899237 -15.409825 -2.522823 0.000000 0.000000 0.000000 
-0.151672 0.908625 -0.111603 2.551932 8.547043 -12.190617 6.470974 -0.243070 -1.167813 5.897002 -3.037497 14.893933 -1.561290 -1.434116 1.756412 0.000000 0.000000 0.000000 0.734794 -1.152187 8.419075 8.560486 -0.639263 -1.547117 -11.821810 -23.263091 -0.982490 0.000000 0.000000 0.000000 1.408044 -0.860533 12.904891 -7.434968 0.595088 -13.765058 7.369938 1.290548 31.242475 0.327834 0.924297 -5.822371 0.000000 0.000000 0.000000 -2.307859 -5.644536 2.447741 -61.708736 -9.520896 -10.385410 121.010833 -73.646341 -92.471878 2.164300 4.610919 -3.071507 -7.234174 6.155096 2.098998 23.669472 -1.446025 12.054482 0.000000 0.000000 0.000000 -3.885135 -1.877230 -1.642930 15.963663 0.104825 17.699355 0.000000 0.000000 0.000000 28.059946 -14.134060 -13.338349 -2.277921 2.245705 9.810775 0.000000 0.000000 0.000000 2.593527 -3.800667 -2.570328 12.902827 1.743224 17.112595 0.000000 0.000000 0.000000 15.140543 23.525065 17.646663 -15.235060 -12.399176 1.319559 0.000000 0.000000 0.000000 -4.925515 6.841152 3.235426 56.230516 29.763396 6.766431 -167.451202 76.537183 -162.327732 -3.136991 0.172247 17.388041 16.988133 -2.240738 0.476263 9.398465 0.812050 -5.599233 0.000000 0.000000 0.000000 15.743948 3.019502 -4.253432 42.165069 2.258939 -17.174746 0.000000 0.000000 0.000000 -32.890986 32.765233 -21.539743 46.981261 39.627566 -55.085709 0.000000 0.000000 0.000000 9.875959 8.664726 -4.780348 54.546647 10.661138 -22.979147 0.000000 0.000000 0.000000 -1.847472 -14.063279 13.439850 2.361742 4.072107 -0.374336 0.000000 0.000000 0.000000 
-0.143192 0.914508 -0.127441 1.025970 7.453011 -12.296107 8.672141 -0.327925 -2.158566 3.681257 -2.592460 15.070326 -1.988610 -0.700253 3.483160 0.000000 0.000000 0.000000 1.105359 -1.329972 9.437053 9.479101 -0.522966 -5.328320 -10.087892 -20.575412 4.654974 0.000000 0.000000 0.000000 3.049236 -1.103956 14.429418 -7.442967 0.787528 -12.896174 7.606478 1.522509 30.792521 -0.344278 0.984168 -5.687388 0.000000 0.000000 0.000000 -4.644817 -5.686705 2.221373 -58.918674 -15.469935 -8.501257 107.441745 -75.994920 -81.248427 2.558712 3.471738 -0.339036 -13.316195 11.491257 3.249955 4.568199 4.365297 19.010096 0.000000 0.000000 0.000000 -11.759267 4.291360 -0.047482 -19.357813 10.443388 21.980662 0.000000 0.000000 0.000000 22.294594 -15.891606 -17.180580 -60.163324 -2.889996 -2.195819 0.000000 0.000000 0.000000 -5.258194 -3.073895 -2.286572 -47.946922 9.452960 17.145759 0.000000 0.000000 0.000000 13.055396 26.223615 22.222776 -8.382367 -15.359019 -1.853012 0.000000 0.000000 0.000000 -3.130756 5.421250 2.654087 56.394982 32.751066 7.852941 -174.739056 79.744392 -172.512741 -4.455833 1.475053 14.513130 22.439598 -7.711276 1.622351 31.562144 -11.553637 5.944900 0.000000 0.000000 0.000000 35.377603 -4.140726 -5.884047 49.234299 -5.527859 -3.881070 0.000000 0.000000 0.000000 -14.211562 67.132531 -50.706354 49.790306 15.174620 -29.284460 0.000000 0.000000 0.000000 33.457065 14.914294 -6.305502 59.268760 5.696956 -10.944514 0.000000 0.000000 0.000000 -2.044286 -21.868001 21.275623 -6.923585 9.147259 -5.655688 0.000000 0.000000 0.000000 
